# Blender v2.78 (sub 0) OBJ File: 'Crystal.blend'
# www.blender.org
mtllib Crystal.mtl
o Crystal_Cylinder.007
v 0.144881 0.337130 -0.107170
v 0.475825 1.086046 -0.230420
v 0.214663 0.306293 -0.075568
v 0.625322 1.019984 -0.162719
v 0.243568 0.293520 0.000724
v 0.687246 0.992620 0.000724
v 0.214663 0.306293 0.077016
v 0.625322 1.019984 0.164167
v 0.144881 0.337130 0.108617
v 0.475825 1.086046 0.231867
v 0.075098 0.367966 0.077016
v 0.326328 1.152108 0.164167
v 0.046193 0.380739 0.000724
v 0.264404 1.179472 0.000724
v 0.075098 0.367966 -0.075568
v 0.326328 1.152108 -0.162719
v 0.611666 1.341501 0.008927
v 0.150211 0.270433 -0.183547
v 0.340116 0.876407 -0.561137
v 0.110580 0.259156 -0.243697
v 0.191141 0.900567 -0.601389
v 0.041041 0.270433 -0.262486
v 0.065361 0.958895 -0.529453
v -0.017671 0.297660 -0.228907
v 0.425019 0.900567 -0.432275
v 0.136719 0.297660 -0.117270
v 0.396115 0.958895 -0.290289
v 0.078007 0.324886 -0.083692
v 0.270335 1.017223 -0.218352
v 0.008468 0.336164 -0.102481
v 0.121359 1.041384 -0.258605
v -0.031163 0.324886 -0.162631
v 0.036456 1.017223 -0.387467
v 0.306884 1.184443 -0.502817
v -0.056732 0.276414 -0.235690
v -0.246994 0.895790 -0.623540
v -0.130197 0.264887 -0.240557
v -0.371777 0.920484 -0.527062
v -0.188443 0.276414 -0.195523
v -0.390861 0.980102 -0.380194
v -0.197351 0.304243 -0.126967
v -0.089608 0.920484 -0.613114
v -0.011084 0.304243 -0.183773
v 0.008185 0.980102 -0.501889
v -0.019992 0.332071 -0.115217
v -0.010899 1.039720 -0.355021
v -0.078238 0.343598 -0.070183
v -0.135682 1.064415 -0.258543
v -0.151703 0.332071 -0.075050
v -0.293067 1.039720 -0.268969
v -0.220016 1.210638 -0.560459
v -0.202250 0.242209 -0.064949
v -0.579233 0.784939 -0.099303
v -0.239372 0.232109 -0.012184
v -0.563892 0.806578 0.038055
v -0.232211 0.242209 0.051932
v -0.462670 0.858819 0.119269
v -0.184962 0.266594 0.089841
v -0.499706 0.806578 -0.212342
v -0.142591 0.266594 -0.075453
v -0.371897 0.858819 -0.234847
v -0.095342 0.290979 -0.037544
v -0.270674 0.911059 -0.153633
v -0.088182 0.301080 0.026572
v -0.255333 0.932698 -0.016275
v -0.125303 0.290979 0.079337
v -0.334860 0.911059 0.096765
v -0.519728 1.060827 -0.090746
v -0.212191 0.284517 0.131298
v -0.530195 0.922048 0.442107
v -0.193314 0.272652 0.204693
v -0.395718 0.947466 0.533072
v -0.130543 0.284517 0.247154
v -0.245979 1.008832 0.504480
v -0.060647 0.313161 0.233807
v -0.570636 0.947466 0.284870
v -0.176116 0.313161 0.069962
v -0.493351 1.008832 0.153469
v -0.106221 0.341805 0.056616
v -0.343612 1.070197 0.124877
v -0.043449 0.353670 0.099077
v -0.209135 1.095616 0.215842
v -0.024572 0.341805 0.172472
v -0.168694 1.070197 0.373079
v -0.477198 1.246125 0.395435
v 0.017537 0.258956 0.226432
v 0.136035 0.839212 0.613414
v 0.084773 0.248157 0.241826
v 0.265767 0.862346 0.542668
v 0.145329 0.258956 0.208803
v 0.305195 0.918199 0.409639
v 0.163733 0.285027 0.146707
v -0.008006 0.862346 0.580436
v -0.016992 0.285027 0.171639
v -0.081979 0.918199 0.463052
v 0.001412 0.311098 0.109544
v -0.042552 0.974051 0.330023
v 0.061968 0.321897 0.076521
v 0.087180 0.997186 0.259277
v 0.129204 0.311098 0.091915
v 0.231221 0.974051 0.292255
v 0.120432 1.134174 0.551063
v -0.089312 0.397850 0.031711
v 0.037189 1.251735 0.213930
v -0.023026 0.385052 0.053142
v 0.170864 1.237275 0.146120
v 0.039371 0.378302 0.021489
v 0.217902 1.244244 0.004309
v 0.061327 0.381555 -0.044705
v -0.104817 1.279153 0.168017
v -0.120657 0.409200 -0.030250
v -0.171970 1.303468 0.035277
v -0.098701 0.412453 -0.096445
v -0.124932 1.310437 -0.106534
v -0.036304 0.405703 -0.128097
v 0.008743 1.295977 -0.174344
v 0.029982 0.392905 -0.106666
v 0.150749 1.268559 -0.128431
v 0.035889 1.582502 0.058162
v 0.079431 0.106037 0.099740
v 0.391648 0.549577 0.404267
v 0.097205 0.079606 0.124888
v 0.481749 0.486880 0.400846
v 0.130247 0.056614 0.123633
v 0.560701 0.470289 0.327431
v 0.159201 0.050530 0.096711
v 0.343180 0.621650 0.335692
v 0.087336 0.120424 0.062921
v 0.364736 0.660881 0.235290
v 0.116289 0.114340 0.035998
v 0.443688 0.644289 0.161876
v 0.149331 0.091348 0.034743
v 0.533788 0.581593 0.158454
v 0.167105 0.064917 0.059891
v 0.582256 0.509520 0.227030
v 0.563050 0.750380 0.366931
v -0.060196 0.087869 0.099037
v -0.225184 0.459201 0.463059
v -0.075108 0.063505 0.120269
v -0.194197 0.401918 0.534016
v -0.063744 0.042498 0.146290
v -0.109715 0.387346 0.576468
v -0.032763 0.037154 0.161858
v -0.184523 0.525639 0.405162
v -0.027746 0.101318 0.095032
v -0.096034 0.562313 0.394241
v 0.003236 0.095974 0.110600
v -0.011551 0.547741 0.436692
v 0.014599 0.074968 0.136621
v 0.019435 0.490458 0.507650
v -0.000312 0.050603 0.157853
v -0.021226 0.424020 0.565547
v -0.146518 0.631539 0.600151
v -0.223445 0.338305 -0.250104
v -0.379084 0.451063 -0.352229
v -0.258542 0.294410 -0.268579
v -0.437674 0.407723 -0.319787
v -0.301662 0.262513 -0.244703
v -0.472843 0.406073 -0.248805
v -0.327545 0.261300 -0.192463
v -0.331396 0.510706 -0.327126
v -0.216930 0.368485 -0.200102
v -0.322544 0.551714 -0.259184
v -0.242814 0.367271 -0.147862
v -0.357714 0.550064 -0.188202
v -0.285934 0.335374 -0.123986
v -0.416303 0.506724 -0.155761
v -0.321030 0.291480 -0.142461
v -0.463991 0.447081 -0.180863
v -0.491143 0.603919 -0.298448
v 0.102826 0.086848 -0.018235
v 0.443992 0.450120 -0.124090
v 0.127872 0.065200 -0.021211
v 0.476714 0.398770 -0.190293
v 0.139872 0.046369 -0.045489
v 0.454692 0.385181 -0.275803
v 0.131796 0.041386 -0.076848
v 0.375694 0.509151 -0.115975
v 0.079405 0.098631 -0.038305
v 0.311829 0.541282 -0.170702
v 0.071329 0.093648 -0.069663
v 0.289808 0.527693 -0.256213
v 0.083329 0.074817 -0.093941
v 0.322530 0.476343 -0.322415
v 0.108375 0.053169 -0.096917
v 0.390827 0.417313 -0.330530
v 0.484047 0.614584 -0.262069
v 0.038778 0.092235 -0.120792
v 0.120385 0.481976 -0.553908
v 0.050599 0.065511 -0.145679
v 0.073845 0.416688 -0.619941
v 0.033531 0.041568 -0.169895
v -0.024207 0.397230 -0.645462
v -0.002426 0.034433 -0.179254
v 0.088151 0.554850 -0.486043
v 0.004994 0.106086 -0.109812
v -0.003974 0.592621 -0.456103
v -0.030964 0.098951 -0.119171
v -0.102025 0.573164 -0.481624
v -0.048031 0.075008 -0.143387
v -0.148565 0.507875 -0.547657
v -0.036210 0.048284 -0.168274
v -0.116332 0.435001 -0.615521
v 0.001522 0.660301 -0.686838
v -0.658339 0.633025 0.191440
v -0.552358 0.415603 0.283044
v -0.148097 0.044522 0.082112
v -0.481244 0.488770 0.292963
v -0.122018 0.071354 0.085749
v -0.434418 0.553288 0.229763
v -0.104846 0.095014 0.062572
v -0.439309 0.571364 0.130466
v -0.106640 0.101643 0.026158
v -0.493053 0.532407 0.053239
v -0.167806 0.030236 0.053791
v -0.606102 0.376646 0.205818
v -0.169599 0.036865 0.017377
v -0.610993 0.394721 0.106521
v -0.152427 0.060525 -0.005800
v -0.564166 0.459240 0.043321
v -0.126348 0.087357 -0.002163
v 0.165117 0.409794 -0.060350
v -0.216827 0.368270 0.175207
v 0.205227 0.243146 0.320793
v 0.438536 0.148899 -0.060350
v 0.205227 0.243146 -0.441494
v -0.216827 0.368270 -0.295908
v -0.191851 0.086828 0.415994
v 0.456269 0.002141 0.340231
v 0.456269 0.002141 -0.460932
v -0.191851 0.086828 -0.536694
v -0.453800 0.173671 -0.060350
v -0.193111 0.002194 -0.060351
v 0.206575 0.351878 0.163678
v -0.029645 0.432572 0.078106
v -0.007978 0.334274 0.302136
v -0.256400 0.404679 -0.060350
v -0.029645 0.432572 -0.198806
v 0.333298 0.298524 -0.060350
v 0.367525 0.190144 0.163679
v 0.206575 0.351878 -0.284379
v 0.367525 0.190144 -0.284380
v -0.007978 0.334274 -0.422837
v -0.380629 0.284685 0.078106
v -0.380629 0.284685 -0.198807
v 0.008801 0.177955 0.435888
v -0.231964 0.237399 0.302139
v 0.487476 0.054499 0.119783
v 0.418848 0.130676 0.243372
v 0.357819 0.134652 -0.469863
v 0.487475 0.054499 -0.240484
v -0.231964 0.237399 -0.422840
v 0.008801 0.177955 -0.556586
v -0.356190 0.088508 0.163679
v 0.115489 0.002126 0.556084
v 0.505557 0.002165 -0.060351
v 0.115489 0.002126 -0.676785
v -0.356190 0.088508 -0.284380
v -0.249288 0.002156 0.476076
v -0.530880 0.002105 -0.060351
v 0.118275 0.002197 0.175104
v 0.118275 0.002197 -0.295805
v -0.314456 0.002156 -0.491913
vn 0.2910 -0.2792 -0.9151
vn 0.7813 -0.4959 -0.3790
vn 0.7813 -0.4959 0.3790
vn 0.2910 -0.2792 0.9151
vn -0.4024 0.0272 0.9151
vn -0.8927 0.2439 0.3790
vn 0.9278 0.1935 0.3191
vn -0.8927 0.2439 -0.3790
vn -0.4024 0.0272 -0.9151
vn -0.4042 -0.9147 -0.0000
vn -0.2159 0.2439 0.9455
vn -0.4092 0.8619 0.2994
vn 0.5173 0.3898 0.7619
vn -0.3981 0.8682 -0.2962
vn 0.9257 0.2080 -0.3159
vn -0.0404 0.6691 0.7421
vn -0.0227 0.6900 -0.7235
vn 0.5217 0.4189 -0.7432
vn 0.5058 0.0272 0.8622
vn 0.9120 -0.2792 0.3004
vn 0.7650 -0.4959 -0.4110
vn 0.1507 -0.4959 -0.8552
vn -0.5710 -0.2792 -0.7720
vn 0.8022 0.1935 -0.5648
vn -0.8302 0.2439 0.5013
vn -0.9773 0.0272 -0.2101
vn -0.2368 -0.9147 0.3275
vn 0.0028 0.8619 0.5070
vn 0.9205 0.3898 0.0272
vn -0.4733 0.8682 0.1490
vn 0.2864 0.2080 -0.9353
vn 0.5777 0.6691 0.4675
vn -0.5996 0.6900 -0.4055
vn -0.2966 0.4189 -0.8582
vn 0.6229 0.2439 0.7433
vn 0.9926 0.0272 0.1179
vn 0.7904 -0.2792 -0.5453
vn 0.1346 -0.4959 -0.8579
vn -0.5905 -0.4959 -0.6368
vn -0.9602 -0.2792 -0.0114
vn 0.0346 0.1935 -0.9805
vn -0.1022 0.2439 0.9644
vn -0.7579 0.0272 0.6518
vn 0.1179 -0.9147 0.3866
vn 0.4057 0.8619 0.3041
vn 0.5778 0.3898 -0.7170
vn -0.1672 0.8682 0.4672
vn -0.5722 0.2080 -0.7933
vn 0.7216 0.6691 -0.1778
vn -0.6854 0.6900 0.2328
vn -0.8631 0.4189 -0.2822
vn 0.9588 0.2439 -0.1455
vn 0.6170 0.0272 -0.7865
vn -0.0547 -0.2792 -0.9587
vn -0.6627 -0.4959 -0.5612
vn -0.8510 -0.4959 0.1732
vn -0.5091 -0.2792 0.8142
vn -0.8195 0.1935 -0.5395
vn 0.7706 0.2439 0.5888
vn 0.1625 0.0272 0.9863
vn 0.3915 -0.9147 0.1004
vn 0.4708 0.8619 -0.1884
vn -0.3119 0.3898 -0.8665
vn 0.3121 0.8682 0.3858
vn -0.9752 0.2080 0.0762
vn 0.2234 0.6691 -0.7088
vn -0.1576 0.6900 0.7065
vn -0.6899 0.4189 0.5904
vn 0.5113 0.2439 -0.8241
vn -0.1982 0.0272 -0.9798
vn -0.7650 -0.2792 -0.5803
vn -0.8570 -0.4959 0.1403
vn -0.4203 -0.4959 0.7599
vn 0.2893 -0.2792 0.9156
vn -0.9422 0.1935 0.2736
vn 0.9480 0.2439 -0.2044
vn 0.8560 0.0272 0.5162
vn 0.3304 -0.9147 -0.2328
vn 0.1621 0.8619 -0.4804
vn -0.8617 0.3898 -0.3248
vn 0.4960 0.8682 0.0128
vn -0.5747 0.2080 0.7915
vn -0.3945 0.6691 -0.6298
vn 0.4354 0.6900 0.5783
vn 0.0017 0.4189 0.9080
vn -0.4975 0.2439 -0.8325
vn -0.9615 0.0272 -0.2735
vn -0.8667 -0.2792 0.4133
vn -0.2687 -0.4959 0.8258
vn 0.4823 -0.4959 0.7222
vn 0.9463 -0.2792 0.1632
vn -0.1893 0.1935 0.9627
vn 0.2535 0.2439 -0.9361
vn 0.8515 0.0272 -0.5236
vn -0.0552 -0.9147 -0.4004
vn -0.3525 0.8619 -0.3645
vn -0.6840 0.3898 0.6165
vn 0.2390 0.8682 -0.4348
vn 0.4395 0.2080 0.8739
vn -0.7406 0.6691 0.0614
vn 0.7136 0.6900 -0.1214
vn 0.8075 0.4189 0.4152
vn -0.4543 -0.0233 -0.8906
vn -0.9482 -0.0312 -0.3161
vn -0.8953 -0.0834 0.4376
vn -0.3303 -0.1499 0.9319
vn 0.4271 -0.1935 0.8832
vn 0.9351 -0.1868 0.3010
vn -0.2060 0.4163 0.8856
vn 0.2957 -0.0645 -0.9531
vn 0.8745 -0.1322 -0.4666
vn -0.1572 -0.9824 -0.1004
vn -0.3015 0.6178 -0.7262
vn -0.7292 0.5053 0.4615
vn 0.3503 0.5699 -0.7433
vn 0.4506 0.3818 0.8069
vn -0.7720 0.5937 -0.2269
vn 0.8116 0.4879 -0.3212
vn 0.8581 0.4132 0.3049
vn 0.0873 0.1789 -0.9800
vn -0.5345 0.4932 -0.6863
vn -0.8881 0.4594 -0.0112
vn -0.7620 0.0968 0.6403
vn -0.2336 -0.3845 0.8931
vn 0.3985 -0.7042 0.5877
vn -0.3931 0.4812 0.7836
vn 0.6093 -0.2918 -0.7373
vn 0.7454 -0.6594 -0.0976
vn -0.5326 -0.7433 -0.4048
vn 0.4408 0.6663 -0.6014
vn -0.5160 0.8296 0.2134
vn 0.8972 0.2731 -0.3471
vn 0.1039 0.0954 0.9900
vn -0.1603 0.9117 -0.3784
vn 0.9799 -0.0359 0.1963
vn 0.6644 -0.1098 0.7393
vn 0.9468 0.2081 -0.2454
vn 0.4517 0.5318 -0.7163
vn -0.3029 0.4869 -0.8193
vn -0.8643 0.0993 -0.4930
vn -0.9111 -0.4062 0.0700
vn -0.4014 -0.7351 0.5464
vn -0.8803 0.4672 -0.0821
vn 0.9071 -0.2862 0.3087
vn 0.3603 -0.6786 0.6401
vn 0.2129 -0.7127 -0.6683
vn 0.7024 0.6717 0.2356
vn -0.3939 0.8377 -0.3782
vn 0.6277 0.2564 0.7350
vn -0.8963 0.0595 0.4395
vn 0.2821 0.9281 -0.2429
vn 0.1518 -0.0727 0.9857
vn -0.4648 -0.1546 0.8718
vn 0.2411 0.3512 0.9047
vn 0.7427 0.5509 0.3808
vn 0.8574 0.3835 -0.3432
vn 0.5190 -0.0560 -0.8529
vn -0.0860 -0.5199 -0.8499
vn -0.6050 -0.7305 -0.3167
vn 0.0420 0.3589 -0.9324
vn -0.3603 -0.1022 0.9272
vn -0.7160 -0.5525 0.4268
vn 0.6712 -0.6701 0.3170
vn -0.2115 0.7526 0.6236
vn 0.3607 0.7770 -0.5159
vn -0.7269 0.3270 0.6040
vn -0.4665 -0.0310 -0.8840
vn 0.2601 0.9537 0.1510
vn -0.9859 -0.0512 0.1594
vn -0.8777 -0.1914 -0.4393
vn -0.8198 0.1789 -0.5440
vn -0.8581 0.4932 0.1426
vn -0.4333 0.4594 0.7754
vn 0.1995 0.0968 0.9751
vn 0.6736 -0.3845 0.6312
vn 0.7066 -0.7042 -0.0701
vn 0.5013 0.4812 0.7191
vn -0.3576 -0.2918 -0.8871
vn 0.2696 -0.6594 -0.7018
vn -0.6098 -0.7433 0.2752
vn -0.3184 0.6663 -0.6742
vn -0.0585 0.8296 0.5553
vn 0.1227 0.2731 -0.9541
vn 0.9198 0.0954 0.3807
vn -0.4090 0.9117 -0.0396
vn 0.6398 -0.0359 -0.7677
vn 0.9666 -0.1098 -0.2315
vn -0.8821 0.1954 0.4286
vn -0.3109 0.5473 0.7770
vn 0.4498 0.5234 0.7237
vn 0.9437 0.1370 0.3011
vn 0.8891 -0.3876 -0.2434
vn 0.3025 -0.7453 -0.5941
vn 0.8641 0.4898 -0.1156
vn -0.9422 -0.3179 -0.1061
vn -0.4634 -0.7097 -0.5306
vn -0.0499 -0.6924 0.7198
vn -0.7555 0.6464 -0.1067
vn 0.4379 0.8598 0.2626
vn -0.7724 0.2149 -0.5976
vn 0.7849 0.0638 -0.6163
vn -0.2539 0.9297 0.2667
vn -0.3485 -0.1123 -0.9306
vn 0.2805 -0.1758 -0.9436
vn -0.9799 -0.1990 0.0120
vn -0.7835 -0.1255 0.6086
vn 0.3076 0.9387 0.1557
vn -0.8217 0.0394 -0.5686
vn -0.3482 0.2147 0.9125
vn 0.1014 0.8581 -0.5034
vn 0.1055 0.6557 0.7476
vn 0.7187 -0.6770 -0.1586
vn -0.3534 -0.7130 0.6056
vn 0.1840 -0.3055 0.9343
vn -0.3768 0.4741 -0.7958
vn -0.6391 -0.7616 -0.1072
vn -0.4855 -0.4060 -0.7742
vn 0.0061 0.1285 -0.9917
vn 0.5463 0.5308 -0.6479
vn 0.8210 0.5675 0.0629
vn 0.6649 0.2174 0.7146
vn 0.2518 0.9473 0.1983
vn -0.6291 0.7705 -0.1033
vn 0.5483 0.8287 0.1128
vn 0.5483 0.8287 -0.1128
vn 0.2518 0.9473 -0.1983
vn -0.5426 0.8116 0.2166
vn 0.2131 0.6483 0.7309
vn -0.1714 0.9817 0.0830
vn -0.2294 0.5242 0.8201
vn -0.2952 0.6826 -0.6685
vn -0.6132 0.5854 0.5304
vn -0.2788 0.6446 0.7119
vn 0.7602 0.6438 0.0879
vn -0.6132 0.5854 -0.5304
vn -0.0000 -1.0000 0.0000
vn -0.0001 -1.0000 -0.0002
vn -0.0001 -1.0000 0.0001
vn -0.3936 0.0858 -0.9153
vn -0.7982 0.3586 -0.4841
vn 0.0003 -1.0000 0.0000
vn -0.7512 0.5421 -0.3766
vn -0.6151 0.6764 -0.4051
vn 0.0001 -1.0000 0.0001
vn 0.0000 -1.0000 0.0002
vn -0.0001 -1.0000 0.0002
vn -0.0001 -1.0000 -0.0001
vn 0.0001 -1.0000 -0.0001
vn 0.5144 0.4952 0.7001
vn -0.7982 0.3586 0.4841
vn -0.9043 0.0710 -0.4210
vn -0.8161 0.1663 0.5534
vn -0.2772 0.4219 -0.8632
vn 0.2585 0.6471 -0.7172
vn 0.5065 0.3224 -0.7997
vn 0.9896 -0.0772 -0.1218
vn 0.9896 -0.0772 0.1218
vn 0.4194 0.6211 0.6621
vn 0.3781 0.6677 0.6412
vn -0.8161 0.1663 -0.5534
vn 0.6710 0.6677 0.3225
vn -0.9043 0.0710 0.4210
vn -0.3141 0.5180 -0.7957
vn -0.2640 0.6105 -0.7467
vn 0.2131 0.6483 -0.7310
vn 0.7859 0.5673 -0.2460
vn 0.7650 0.6049 -0.2210
vn 0.7630 0.6342 -0.1251
vn 0.8768 0.4249 0.2250
vn -0.3141 0.5180 0.7956
vn 0.4052 0.7179 -0.5661
vn -0.8349 0.5503 0.0000
vn 0.6710 0.6677 -0.3225
vn 0.9096 0.4155 -0.0000
vn 0.2882 0.7862 -0.5466
vn -0.7101 0.5776 0.4027
vn 0.8085 0.5687 -0.1516
vn 0.8085 0.5687 0.1516
vn 0.0463 0.9164 -0.3976
vn -0.2313 0.9549 -0.1864
vn 0.1162 0.9932 0.0000
vn 0.2882 0.7862 0.5466
vn 0.1719 0.9081 0.3818
vn -0.1002 0.9075 0.4079
vn -0.0000 -1.0000 -0.0002
usemtl Almaz
s off
f 1//1 2//1 4//1 3//1
f 3//2 4//2 6//2 5//2
f 5//3 6//3 8//3 7//3
f 7//4 8//4 10//4 9//4
f 9//5 10//5 12//5 11//5
f 11//6 12//6 14//6 13//6
f 8//7 6//7 17//7
f 13//8 14//8 16//8 15//8
f 15//9 16//9 2//9 1//9
f 1//10 3//10 5//10 7//10 9//10 11//10 13//10 15//10
f 28//11 29//11 31//11 30//11
f 14//12 12//12 17//12
f 10//13 8//13 17//13
f 16//14 14//14 17//14
f 6//15 4//15 17//15
f 12//16 10//16 17//16
f 2//17 16//17 17//17
f 4//18 2//18 17//18
f 26//19 27//19 29//19 28//19
f 18//20 25//20 27//20 26//20
f 20//21 19//21 25//21 18//21
f 22//22 21//22 19//22 20//22
f 24//23 23//23 21//23 22//23
f 25//24 19//24 34//24
f 30//25 31//25 33//25 32//25
f 32//26 33//26 23//26 24//26
f 24//27 22//27 20//27 18//27 26//27 28//27 30//27 32//27
f 31//28 29//28 34//28
f 27//29 25//29 34//29
f 33//30 31//30 34//30
f 19//31 21//31 34//31
f 29//32 27//32 34//32
f 23//33 33//33 34//33
f 21//34 23//34 34//34
f 45//35 46//35 48//35 47//35
f 43//36 44//36 46//36 45//36
f 35//37 42//37 44//37 43//37
f 37//38 36//38 42//38 35//38
f 39//39 38//39 36//39 37//39
f 41//40 40//40 38//40 39//40
f 42//41 36//41 51//41
f 47//42 48//42 50//42 49//42
f 49//43 50//43 40//43 41//43
f 41//44 39//44 37//44 35//44 43//44 45//44 47//44 49//44
f 48//45 46//45 51//45
f 44//46 42//46 51//46
f 50//47 48//47 51//47
f 36//48 38//48 51//48
f 46//49 44//49 51//49
f 40//50 50//50 51//50
f 38//51 40//51 51//51
f 62//52 63//52 65//52 64//52
f 60//53 61//53 63//53 62//53
f 52//54 59//54 61//54 60//54
f 54//55 53//55 59//55 52//55
f 56//56 55//56 53//56 54//56
f 58//57 57//57 55//57 56//57
f 59//58 53//58 68//58
f 64//59 65//59 67//59 66//59
f 66//60 67//60 57//60 58//60
f 58//61 56//61 54//61 52//61 60//61 62//61 64//61 66//61
f 65//62 63//62 68//62
f 61//63 59//63 68//63
f 67//64 65//64 68//64
f 53//65 55//65 68//65
f 63//66 61//66 68//66
f 57//67 67//67 68//67
f 55//68 57//68 68//68
f 79//69 80//69 82//69 81//69
f 77//70 78//70 80//70 79//70
f 69//71 76//71 78//71 77//71
f 71//72 70//72 76//72 69//72
f 73//73 72//73 70//73 71//73
f 75//74 74//74 72//74 73//74
f 76//75 70//75 85//75
f 81//76 82//76 84//76 83//76
f 83//77 84//77 74//77 75//77
f 75//78 73//78 71//78 69//78 77//78 79//78 81//78 83//78
f 82//79 80//79 85//79
f 78//80 76//80 85//80
f 84//81 82//81 85//81
f 70//82 72//82 85//82
f 80//83 78//83 85//83
f 74//84 84//84 85//84
f 72//85 74//85 85//85
f 96//86 97//86 99//86 98//86
f 94//87 95//87 97//87 96//87
f 86//88 93//88 95//88 94//88
f 88//89 87//89 93//89 86//89
f 90//90 89//90 87//90 88//90
f 92//91 91//91 89//91 90//91
f 93//92 87//92 102//92
f 98//93 99//93 101//93 100//93
f 100//94 101//94 91//94 92//94
f 92//95 90//95 88//95 86//95 94//95 96//95 98//95 100//95
f 99//96 97//96 102//96
f 95//97 93//97 102//97
f 101//98 99//98 102//98
f 87//99 89//99 102//99
f 97//100 95//100 102//100
f 91//101 101//101 102//101
f 89//102 91//102 102//102
f 113//103 114//103 116//103 115//103
f 111//104 112//104 114//104 113//104
f 103//105 110//105 112//105 111//105
f 105//106 104//106 110//106 103//106
f 107//107 106//107 104//107 105//107
f 109//108 108//108 106//108 107//108
f 110//109 104//109 119//109
f 115//110 116//110 118//110 117//110
f 117//111 118//111 108//111 109//111
f 109//112 107//112 105//112 103//112 111//112 113//112 115//112 117//112
f 116//113 114//113 119//113
f 112//114 110//114 119//114
f 118//115 116//115 119//115
f 104//116 106//116 119//116
f 114//117 112//117 119//117
f 108//118 118//118 119//118
f 106//119 108//119 119//119
f 130//120 131//120 133//120 132//120
f 128//121 129//121 131//121 130//121
f 120//122 127//122 129//122 128//122
f 122//123 121//123 127//123 120//123
f 124//124 123//124 121//124 122//124
f 126//125 125//125 123//125 124//125
f 127//126 121//126 136//126
f 132//127 133//127 135//127 134//127
f 134//128 135//128 125//128 126//128
f 126//129 124//129 122//129 120//129 128//129 130//129 132//129 134//129
f 133//130 131//130 136//130
f 129//131 127//131 136//131
f 135//132 133//132 136//132
f 121//133 123//133 136//133
f 131//134 129//134 136//134
f 125//135 135//135 136//135
f 123//136 125//136 136//136
f 147//137 148//137 150//137 149//137
f 145//138 146//138 148//138 147//138
f 137//139 144//139 146//139 145//139
f 139//140 138//140 144//140 137//140
f 141//141 140//141 138//141 139//141
f 143//142 142//142 140//142 141//142
f 144//143 138//143 153//143
f 149//144 150//144 152//144 151//144
f 151//145 152//145 142//145 143//145
f 143//146 141//146 139//146 137//146 145//146 147//146 149//146 151//146
f 150//147 148//147 153//147
f 146//148 144//148 153//148
f 152//149 150//149 153//149
f 138//150 140//150 153//150
f 148//151 146//151 153//151
f 142//152 152//152 153//152
f 140//153 142//153 153//153
f 164//154 165//154 167//154 166//154
f 162//155 163//155 165//155 164//155
f 154//156 161//156 163//156 162//156
f 156//157 155//157 161//157 154//157
f 158//158 157//158 155//158 156//158
f 160//159 159//159 157//159 158//159
f 161//160 155//160 170//160
f 166//161 167//161 169//161 168//161
f 168//162 169//162 159//162 160//162
f 160//163 158//163 156//163 154//163 162//163 164//163 166//163 168//163
f 167//164 165//164 170//164
f 163//165 161//165 170//165
f 169//166 167//166 170//166
f 155//167 157//167 170//167
f 165//168 163//168 170//168
f 159//169 169//169 170//169
f 157//170 159//170 170//170
f 181//171 182//171 184//171 183//171
f 179//172 180//172 182//172 181//172
f 171//173 178//173 180//173 179//173
f 173//174 172//174 178//174 171//174
f 175//175 174//175 172//175 173//175
f 177//176 176//176 174//176 175//176
f 178//177 172//177 187//177
f 183//178 184//178 186//178 185//178
f 185//179 186//179 176//179 177//179
f 177//180 175//180 173//180 171//180 179//180 181//180 183//180 185//180
f 184//181 182//181 187//181
f 180//182 178//182 187//182
f 186//183 184//183 187//183
f 172//184 174//184 187//184
f 182//185 180//185 187//185
f 176//186 186//186 187//186
f 174//187 176//187 187//187
f 198//188 199//188 201//188 200//188
f 196//189 197//189 199//189 198//189
f 188//190 195//190 197//190 196//190
f 190//191 189//191 195//191 188//191
f 192//192 191//192 189//192 190//192
f 194//193 193//193 191//193 192//193
f 195//194 189//194 204//194
f 200//195 201//195 203//195 202//195
f 202//196 203//196 193//196 194//196
f 194//197 192//197 190//197 188//197 196//197 198//197 200//197 202//197
f 201//198 199//198 204//198
f 197//199 195//199 204//199
f 203//200 201//200 204//200
f 189//201 191//201 204//201
f 199//202 197//202 204//202
f 193//203 203//203 204//203
f 191//204 193//204 204//204
f 218//205 216//205 205//205
f 216//206 206//206 205//206
f 210//207 212//207 205//207
f 220//208 218//208 205//208
f 206//209 208//209 205//209
f 212//210 214//210 205//210
f 208//211 210//211 205//211
f 215//212 217//212 219//212 221//212 213//212 211//212 209//212 207//212
f 207//213 206//213 216//213 215//213
f 209//214 208//214 206//214 207//214
f 214//215 220//215 205//215
f 215//216 216//216 218//216 217//216
f 217//217 218//217 220//217 219//217
f 219//218 220//218 214//218 221//218
f 221//219 214//219 212//219 213//219
f 213//220 212//220 210//220 211//220
f 211//221 210//221 208//221 209//221
usemtl Earth
f 222//222 235//222 234//222
f 237//223 227//223 245//223 244//223
f 222//224 234//224 239//224
f 222//225 239//225 241//225
f 222//226 241//226 238//226
f 223//227 237//227 244//227
f 224//228 236//228 246//228
f 235//229 238//229 237//229 223//229
f 228//230 259//230 255//230 246//230
f 227//231 243//231 252//231
f 223//232 244//232 247//232
f 236//233 223//233 247//233 246//233
f 240//234 249//234 248//234 225//234
f 227//235 252//235 245//235
f 262//236 256//236 261//236 233//236
f 229//237 255//237 261//237
f 230//238 256//238 262//238
f 231//239 257//239 263//239
f 232//240 258//240 260//240
f 260//241 263//241 233//241
f 260//242 258//242 263//242
f 258//243 231//243 263//243
f 263//244 262//244 233//244
f 263//245 257//245 262//245
f 257//246 230//246 262//246
f 256//247 229//247 261//247
f 261//248 259//248 233//248
f 240//249 224//249 246//249 249//249
f 259//241 260//241 233//241
f 254//250 232//250 260//250
f 245//251 258//251 232//251
f 247//252 244//252 254//252 228//252
f 253//253 257//253 231//253
f 253//254 250//254 257//254
f 250//255 230//255 257//255
f 251//256 256//256 230//256
f 248//257 229//257 256//257
f 249//258 255//258 229//258
f 249//259 246//259 255//259
f 252//260 231//260 258//260 245//260
f 234//261 224//261 240//261 239//261
f 244//262 232//262 254//262
f 252//263 253//263 231//263
f 252//264 243//264 253//264
f 243//265 226//265 253//265
f 250//266 251//266 230//266
f 250//267 242//267 251//267
f 242//268 225//268 251//268
f 248//269 249//269 229//269
f 246//270 247//270 228//270
f 250//271 253//271 226//271 242//271
f 244//272 245//272 232//272
f 241//273 239//273 242//273 226//273
f 248//274 256//274 251//274 225//274
f 241//275 226//275 243//275
f 254//276 260//276 259//276 228//276
f 239//277 225//277 242//277
f 239//278 240//278 225//278
f 238//279 241//279 243//279 227//279
f 237//280 238//280 227//280
f 235//281 222//281 238//281
f 234//282 236//282 224//282
f 234//283 235//283 236//283
f 235//284 223//284 236//284
f 259//285 261//285 255//285
