# Blender v2.82 (sub 7) OBJ File: ''
# www.blender.org
o Rock02_Mesh.004
v -45.020992 -0.045971 -11.897454
v -41.328712 -0.045971 -12.359660
v -45.319408 -0.045971 -15.496713
v -40.921974 -0.045971 -15.047153
v -44.179329 2.423235 -12.246377
v -41.963467 2.743806 -12.775004
v -44.289326 2.423235 -15.015447
v -41.607876 2.743806 -14.500645
v -41.401470 1.657442 -12.159865
v -44.685215 1.657442 -11.630581
v -40.935703 1.657441 -15.237381
v -45.026936 1.657441 -15.752183
v -42.757305 -0.045971 -15.817828
v -42.693356 -0.045971 -11.897454
v -42.844246 2.567492 -12.367318
v -42.917477 2.567492 -15.383163
v -42.635574 1.657442 -11.630581
v -42.708809 1.657441 -16.119900
v -45.897411 -0.045971 -13.687338
v -40.792778 -0.045971 -13.687338
v -41.459930 2.743806 -13.680222
v -44.951214 2.423235 -13.680222
v -40.787758 1.657442 -13.680222
v -45.688824 1.657442 -13.680222
v -42.844246 2.567492 -13.680222
v -41.151749 0.362848 -12.159864
v -40.685982 0.362848 -15.237381
v -45.494942 0.362848 -15.752183
v -45.153221 0.362848 -11.630581
v -42.635574 0.362848 -11.630581
v -42.708809 0.362848 -16.119900
v -40.538036 0.362848 -13.680222
v -46.156830 0.362848 -13.680222
vt 0.607916 0.666533
vt 0.719061 0.728330
vt 0.578189 0.777272
vt 0.458438 0.599054
vt 0.685271 0.500786
vt 0.489410 0.610043
vt 0.846102 0.495110
vt 0.945272 0.624484
vt 0.833020 0.516369
vt 0.989812 0.776863
vt 0.843130 0.932306
vt 0.965762 0.773276
vt 0.583240 0.985228
vt 0.458461 0.818151
vt 0.596545 0.964518
vt 0.789020 0.580609
vt 0.694646 0.647824
vt 0.697043 0.575926
vt 0.807844 0.731508
vt 0.875683 0.658165
vt 0.896410 0.765560
vt 0.665944 0.837320
vt 0.808182 0.878504
vt 0.637988 0.909277
vt 0.557044 0.629157
vt 0.524919 0.796017
vt 0.753053 0.662264
vt 0.678760 0.476420
vt 0.859331 0.956925
vt 0.765251 0.832014
vt 0.964907 0.613312
vt 0.429427 0.827254
vt 0.803332 0.691510
vn -0.2486 0.8611 0.4435
vn -0.1174 0.9931 -0.0044
vn -0.4996 0.8663 0.0013
vn -0.4476 -0.5858 0.6756
vn 0.1710 -0.2721 0.9469
vn -0.5575 -0.1818 0.8100
vn 0.5819 -0.5497 0.5993
vn 0.9755 -0.1729 0.1360
vn 0.6903 -0.2013 0.6949
vn 0.6553 -0.5976 -0.4620
vn 0.1372 -0.2880 -0.9478
vn 0.8004 -0.2126 -0.5604
vn -0.5286 -0.6026 -0.5979
vn -0.9927 -0.0995 0.0676
vn -0.6612 -0.1743 -0.7297
vn 0.6385 0.3604 0.6800
vn 0.0179 0.8826 0.4698
vn 0.1924 0.3285 0.9247
vn 0.3824 0.8904 -0.2468
vn 0.9197 0.3686 0.1355
vn 0.7359 0.3864 -0.5560
vn -0.2926 0.8948 -0.3371
vn 0.1320 0.3359 -0.9326
vn -0.5208 0.4863 -0.7016
vn -0.4299 0.4186 0.7999
vn -0.8534 0.5186 0.0517
vn 0.2780 0.8864 0.3701
vn 0.1327 -0.5549 0.8213
vn 0.1068 -0.5990 -0.7936
vn -0.0213 0.8610 -0.5082
vn 0.8403 -0.5259 0.1313
vn -0.8419 -0.5354 0.0677
vn 0.5104 0.8541 0.0996
s 1
f 5/1/1 25/2/2 22/3/3
f 1/4/4 30/5/5 29/6/6
f 2/7/7 32/8/8 26/9/9
f 4/10/10 31/11/11 27/12/12
f 3/13/13 33/14/14 28/15/15
f 9/16/16 15/17/17 17/18/18
f 8/19/19 23/20/20 11/21/21
f 7/22/22 18/23/23 12/24/24
f 10/25/25 22/3/3 24/26/26
f 6/27/27 25/2/2 15/17/17
f 2/7/7 30/5/5 14/28/28
f 3/13/13 31/11/11 13/29/29
f 5/1/1 17/18/18 15/17/17
f 16/30/30 11/21/21 18/23/23
f 25/2/2 7/22/22 22/3/3
f 4/10/10 32/8/8 20/31/31
f 1/4/4 33/14/14 19/32/32
f 6/27/27 23/20/20 21/33/33
f 7/22/22 24/26/26 22/3/3
f 8/19/19 25/2/2 21/33/33
f 30/5/5 10/25/25 29/6/6
f 23/20/20 26/9/9 32/8/8
f 31/11/11 11/21/21 27/12/12
f 24/26/26 28/15/15 33/14/14
f 9/16/16 30/5/5 26/9/9
f 12/24/24 31/11/11 28/15/15
f 27/12/12 23/20/20 32/8/8
f 29/6/6 24/26/26 33/14/14
f 5/1/1 15/17/17 25/2/2
f 1/4/4 14/28/28 30/5/5
f 2/7/7 20/31/31 32/8/8
f 4/10/10 13/29/29 31/11/11
f 3/13/13 19/32/32 33/14/14
f 9/16/16 6/27/27 15/17/17
f 8/19/19 21/33/33 23/20/20
f 7/22/22 16/30/30 18/23/23
f 10/25/25 5/1/1 22/3/3
f 6/27/27 21/33/33 25/2/2
f 2/7/7 26/9/9 30/5/5
f 3/13/13 28/15/15 31/11/11
f 5/1/1 10/25/25 17/18/18
f 16/30/30 8/19/19 11/21/21
f 25/2/2 16/30/30 7/22/22
f 4/10/10 27/12/12 32/8/8
f 1/4/4 29/6/6 33/14/14
f 6/27/27 9/16/16 23/20/20
f 7/22/22 12/24/24 24/26/26
f 8/19/19 16/30/30 25/2/2
f 30/5/5 17/18/18 10/25/25
f 23/20/20 9/16/16 26/9/9
f 31/11/11 18/23/23 11/21/21
f 24/26/26 12/24/24 28/15/15
f 9/16/16 17/18/18 30/5/5
f 12/24/24 18/23/23 31/11/11
f 27/12/12 11/21/21 23/20/20
f 29/6/6 10/25/25 24/26/26
