# Blender v2.82 (sub 7) OBJ File: ''
# www.blender.org
v -1.855753 0.000000 1.243559
v 0.478862 0.000000 1.261756
v -1.855514 -0.000000 -1.081444
v 0.791389 -0.000000 -0.879114
v -0.093497 1.694909 0.846413
v -1.887085 1.852226 -0.600177
v -0.151139 1.694909 -0.452388
v 0.406103 0.989103 1.461552
v -1.986640 0.989103 1.510432
v 0.777658 0.989103 -1.069341
v -2.029709 0.989103 -1.336913
v -0.416293 -0.000000 -1.458912
v -0.761866 0.000000 1.768170
v -1.279754 2.202009 1.298306
v -0.896040 2.223017 -1.024247
v -0.704086 0.989103 2.035043
v -0.367794 0.989103 -1.760983
v -2.148206 -0.000000 -0.007116
v 1.225233 -0.000000 -0.007116
v 0.620475 1.694909 -0.000000
v -2.300284 1.319592 -0.000000
v 1.230251 0.989103 -0.000000
v -2.406284 0.989103 -0.000000
v -1.172812 2.539836 -0.000000
v 0.655826 0.408819 1.461552
v 1.027381 0.408819 -1.069341
v -2.031049 0.408819 -1.336913
v -1.987981 0.408819 1.510432
v -0.704086 0.408819 2.035043
v -0.367794 0.408819 -1.760983
v 1.479974 0.408819 -0.000000
v -2.407624 0.408819 -0.000000
v -0.246906 2.260240 -0.000000
v -1.684270 2.083936 -0.000000
v -1.978981 1.655124 0.894636
vt 0.887986 0.132388
vt 0.808794 0.117371
vt 0.865376 0.086955
vt 0.996145 0.150534
vt 0.922260 0.058003
vt 0.928479 0.039703
vt 0.835731 0.360901
vt 0.943795 0.270098
vt 0.961242 0.283280
vt 0.726762 0.337323
vt 0.670529 0.218685
vt 0.740662 0.320012
vt 0.688771 0.073796
vt 0.799142 0.030691
vt 0.701953 0.086725
vt 0.880026 0.216286
vt 0.962296 0.158436
vt 0.931784 0.246675
vt 0.745893 0.294593
vt 0.824666 0.268792
vt 0.828917 0.317582
vt 0.715123 0.097013
vt 0.755020 0.175909
vt 0.686325 0.216156
vt 0.801582 0.052228
vt 0.912239 0.070637
vt 0.819118 0.209192
vt 0.977714 0.156425
vt 0.650448 0.220766
vt 0.784730 0.227605
vt 0.812802 0.152821
vt 0.832294 0.342395
vt 0.795224 0.008970
vt 0.803010 0.060444
vt 0.777227 0.113002
vn -0.1571 0.7984 0.5812
vn -0.6713 0.7401 -0.0401
vn -0.8060 0.5222 0.2787
vn -0.0347 -0.5561 0.8304
vn -0.7122 -0.2662 0.6496
vn -0.6835 -0.5489 0.4812
vn 0.8362 -0.5465 0.0470
vn 0.6804 -0.1280 0.7215
vn 0.5493 -0.5491 0.6299
vn 0.5581 -0.5951 -0.5783
vn 0.1184 -0.2831 -0.9518
vn 0.7384 -0.1378 -0.6601
vn -0.5887 -0.5965 -0.5456
vn -0.9656 -0.2598 -0.0056
vn -0.6624 -0.2880 -0.6916
vn 0.4739 0.7320 0.4895
vn 0.0933 0.2989 0.9497
vn 0.5582 0.4787 0.6776
vn 0.5876 0.5218 -0.6184
vn 0.6043 0.7957 -0.0419
vn 0.8578 0.5116 0.0498
vn -0.6705 0.2393 -0.7023
vn 0.0826 0.7915 -0.6055
vn 0.1967 0.3326 -0.9223
vn -0.9891 0.1472 -0.0064
vn -0.7261 0.1898 0.6609
vn 0.5144 0.8559 -0.0541
vn 0.0288 -0.2560 0.9662
vn 0.0709 -0.5995 -0.7972
vn 0.5163 0.6699 -0.5335
vn -0.2199 0.9740 -0.0540
vn 0.9964 -0.0674 0.0519
vn -0.8444 -0.5355 -0.0190
vn -0.9067 0.4213 -0.0194
vn -0.6767 0.6692 -0.3069
s 1
f 14/1/1 34/2/2 35/3/3
f 13/4/4 28/5/5 1/6/6
f 19/7/7 25/8/8 2/9/9
f 4/10/10 30/11/11 26/12/12
f 3/13/13 32/14/14 27/15/15
f 5/16/16 16/17/17 8/18/18
f 10/19/19 20/20/20 22/21/21
f 11/22/22 15/23/23 17/24/24
f 35/3/3 23/25/25 9/26/26
f 5/16/16 20/20/20 33/27/27
f 2/9/9 29/28/28 13/4/4
f 12/29/29 27/15/15 30/11/11
f 14/1/1 9/26/26 16/17/17
f 7/30/30 17/24/24 15/23/23
f 24/31/31 15/23/23 34/2/2
f 19/7/7 26/12/12 31/32/32
f 1/6/6 32/14/14 18/33/33
f 20/20/20 8/18/18 22/21/21
f 21/34/34 11/22/22 23/25/25
f 20/20/20 7/30/30 33/27/27
f 29/28/28 9/26/26 28/5/5
f 22/21/21 25/8/8 31/32/32
f 30/11/11 10/19/19 26/12/12
f 23/25/25 27/15/15 32/14/14
f 8/18/18 29/28/28 25/8/8
f 11/22/22 30/11/11 27/15/15
f 26/12/12 22/21/21 31/32/32
f 28/5/5 23/25/25 32/14/14
f 7/30/30 15/23/23 33/27/27
f 33/27/27 14/1/1 5/16/16
f 6/35/35 21/34/34 34/2/2
f 34/2/2 21/34/34 35/3/3
f 15/23/23 24/31/31 33/27/27
f 33/27/27 24/31/31 14/1/1
f 14/1/1 24/31/31 34/2/2
f 15/23/23 6/35/35 34/2/2
f 13/4/4 29/28/28 28/5/5
f 19/7/7 31/32/32 25/8/8
f 4/10/10 12/29/29 30/11/11
f 3/13/13 18/33/33 32/14/14
f 5/16/16 14/1/1 16/17/17
f 10/19/19 7/30/30 20/20/20
f 11/22/22 6/35/35 15/23/23
f 35/3/3 21/34/34 23/25/25
f 2/9/9 25/8/8 29/28/28
f 12/29/29 3/13/13 27/15/15
f 14/1/1 35/3/3 9/26/26
f 7/30/30 10/19/19 17/24/24
f 19/7/7 4/10/10 26/12/12
f 1/6/6 28/5/5 32/14/14
f 20/20/20 5/16/16 8/18/18
f 21/34/34 6/35/35 11/22/22
f 29/28/28 16/17/17 9/26/26
f 22/21/21 8/18/18 25/8/8
f 30/11/11 17/24/24 10/19/19
f 23/25/25 11/22/22 27/15/15
f 8/18/18 16/17/17 29/28/28
f 11/22/22 17/24/24 30/11/11
f 26/12/12 10/19/19 22/21/21
f 28/5/5 9/26/26 23/25/25
