# Blender v2.82 (sub 7) OBJ File: ''
# www.blender.org
o Rock01_Mesh.005
v -39.353386 -0.045971 -12.518889
v -35.706337 -0.045971 -12.359660
v -39.235447 -0.045971 -15.939136
v -35.528893 -0.045971 -15.074012
v -36.278694 3.022712 -12.775004
v -38.737408 4.233401 -15.457870
v -36.059010 3.022712 -14.783171
v -35.779095 1.657442 -12.159865
v -39.484272 1.657442 -12.252016
v -35.542625 1.657441 -15.264239
v -39.409641 1.657441 -16.194605
v -36.544106 -0.045971 -16.259827
v -37.070980 -0.045971 -11.897454
v -37.588867 3.529811 -12.367318
v -37.071274 3.529811 -15.825162
v -37.013199 1.657442 -11.630581
v -36.495605 1.657441 -16.561897
v -39.868568 -0.045971 -13.687338
v -35.050739 -0.045971 -13.687338
v -35.655499 3.022712 -13.680222
v -39.491035 3.700767 -13.680222
v -35.045723 1.657442 -13.680222
v -40.126644 1.657442 -13.680222
v -37.588867 3.867638 -13.680222
v -35.529373 0.362848 -12.159864
v -35.292904 0.362848 -15.264239
v -39.410980 0.362848 -16.194605
v -39.485615 0.362848 -12.252016
v -37.013199 0.362848 -11.630581
v -36.495605 0.362848 -16.561897
v -34.795998 0.362848 -13.680222
v -40.127983 0.362848 -13.680222
v -36.522881 3.588042 -13.680222
v -38.922447 4.444103 -13.680222
v -38.947006 4.036299 -12.867812
vt 0.364360 0.273220
vt 0.459669 0.265004
vt 0.399124 0.326942
vt 0.546402 0.528179
vt 0.633059 0.267003
vt 0.657104 0.258449
vt 0.173090 0.607026
vt 0.362533 0.598841
vt 0.366112 0.617096
vt 0.018934 0.194291
vt 0.035222 0.462065
vt 0.016350 0.471995
vt 0.268727 0.012297
vt 0.533789 0.074927
vt 0.270280 0.039755
vt 0.336303 0.373969
vt 0.475442 0.444345
vt 0.355538 0.514404
vt 0.246147 0.349335
vt 0.218386 0.518575
vt 0.109679 0.421335
vt 0.274742 0.091108
vt 0.250178 0.262979
vt 0.117658 0.244702
vt 0.548613 0.254333
vt 0.397023 0.202479
vt 0.491299 0.126148
vt 0.276855 0.374380
vt 0.327595 0.327537
vt 0.528420 0.518785
vt 0.044605 0.203938
vt 0.283510 0.209549
vt 0.382980 0.239847
vt 0.181235 0.589755
vt 0.555888 0.045143
vn 0.3077 0.9457 0.1045
vn -0.3487 0.6993 0.6241
vn 0.1374 0.6763 0.7237
vn 0.0157 -0.5523 0.8335
vn -0.6093 -0.2797 0.7420
vn -0.5638 -0.5730 0.5948
vn 0.8457 -0.5308 0.0545
vn 0.6664 -0.2036 0.7172
vn 0.5546 -0.5501 0.6243
vn 0.3129 -0.5960 -0.7395
vn 0.8491 -0.2147 -0.4826
vn 0.7152 -0.5833 -0.3851
vn -0.5394 -0.6025 -0.5883
vn -0.9627 -0.2620 0.0676
vn -0.6187 -0.2881 -0.7309
vn 0.5324 0.6240 0.5720
vn 0.1054 0.2046 0.9732
vn 0.6317 0.2852 0.7208
vn 0.7253 0.6072 -0.3244
vn 0.9526 0.2971 0.0649
vn 0.8404 0.2890 -0.4584
vn -0.6378 0.1737 -0.7503
vn 0.3461 0.6872 -0.6388
vn 0.4002 0.2137 -0.8911
vn -0.6324 0.1535 0.7593
vn -0.9020 0.4252 0.0747
vn -0.9869 0.1458 0.0696
vn 0.7763 0.6259 0.0747
vn 0.4321 0.8968 0.0948
vn 0.0588 -0.2642 0.9627
vn 0.3372 -0.2724 -0.9012
vn -0.2971 0.7978 -0.5247
vn -0.2441 0.9597 0.1392
vn 0.9830 -0.1723 0.0637
vn -0.8421 -0.5355 0.0646
s 1
f 24/1/1 35/2/2 14/3/3
f 13/4/4 28/5/5 1/6/6
f 19/7/7 25/8/8 2/9/9
f 12/10/10 26/11/11 4/12/12
f 3/13/13 32/14/14 27/15/15
f 5/16/16 16/17/17 8/18/18
f 7/19/19 22/20/20 10/21/21
f 11/22/22 15/23/23 17/24/24
f 9/25/25 21/26/26 23/27/27
f 5/16/16 20/28/28 33/29/29
f 2/9/9 29/30/30 13/4/4
f 3/13/13 30/31/31 12/10/10
f 14/3/3 9/25/25 16/17/17
f 7/19/19 17/24/24 15/23/23
f 24/1/1 6/32/32 34/33/33
f 4/12/12 31/34/34 19/7/7
f 1/6/6 32/14/14 18/35/35
f 20/28/28 8/18/18 22/20/20
f 21/26/26 11/22/22 23/27/27
f 20/28/28 7/19/19 33/29/29
f 29/30/30 9/25/25 28/5/5
f 22/20/20 25/8/8 31/34/34
f 30/31/31 10/21/21 26/11/11
f 23/27/27 27/15/15 32/14/14
f 8/18/18 29/30/30 25/8/8
f 11/22/22 30/31/31 27/15/15
f 26/11/11 22/20/20 31/34/34
f 28/5/5 23/27/27 32/14/14
f 15/23/23 33/29/29 7/19/19
f 33/29/29 14/3/3 5/16/16
f 6/32/32 21/26/26 34/33/33
f 34/33/33 21/26/26 35/2/2
f 24/1/1 34/33/33 35/2/2
f 13/4/4 29/30/30 28/5/5
f 19/7/7 31/34/34 25/8/8
f 12/10/10 30/31/31 26/11/11
f 3/13/13 18/35/35 32/14/14
f 5/16/16 14/3/3 16/17/17
f 7/19/19 20/28/28 22/20/20
f 11/22/22 6/32/32 15/23/23
f 9/25/25 35/2/2 21/26/26
f 2/9/9 25/8/8 29/30/30
f 3/13/13 27/15/15 30/31/31
f 14/3/3 35/2/2 9/25/25
f 7/19/19 10/21/21 17/24/24
f 24/1/1 15/23/23 6/32/32
f 4/12/12 26/11/11 31/34/34
f 1/6/6 28/5/5 32/14/14
f 20/28/28 5/16/16 8/18/18
f 21/26/26 6/32/32 11/22/22
f 29/30/30 16/17/17 9/25/25
f 22/20/20 8/18/18 25/8/8
f 30/31/31 17/24/24 10/21/21
f 23/27/27 11/22/22 27/15/15
f 8/18/18 16/17/17 29/30/30
f 11/22/22 17/24/24 30/31/31
f 26/11/11 10/21/21 22/20/20
f 28/5/5 9/25/25 23/27/27
f 15/23/23 24/1/1 33/29/29
f 33/29/29 24/1/1 14/3/3
