# Blender v2.82 (sub 7) OBJ File: ''
# www.blender.org
v -2.385418 0.000000 1.782767
v 1.306863 0.000000 1.320561
v -2.683833 -0.000000 -1.816491
v 1.713602 -0.000000 -1.366932
v -1.543755 2.469206 1.433845
v 0.672107 2.789777 0.905218
v -1.653753 2.469206 -1.335225
v 1.027698 2.789777 -0.820423
v 1.234103 1.703413 1.520357
v -2.049640 1.703413 2.049640
v 1.699871 1.703412 -1.557159
v -2.391363 1.703412 -2.071961
v -0.121732 -0.000000 -2.137607
v -0.057780 0.000000 1.782767
v -0.208670 2.613463 1.312904
v -0.281904 2.613463 -1.702942
v 0.000000 1.703413 2.049640
v -0.073234 1.703412 -2.439678
v -3.261837 -0.000000 -0.007116
v 1.842797 -0.000000 -0.007116
v 1.175642 2.789777 -0.000000
v -2.315639 2.469206 -0.000000
v 1.847815 1.703413 -0.000000
v -3.053249 1.703413 -0.000000
v -0.208670 2.613463 -0.000000
v 1.483826 0.408819 1.520357
v 1.949594 0.408819 -1.557159
v -2.859368 0.408819 -2.071961
v -2.517646 0.408819 2.049640
v 0.000000 0.408819 2.049640
v -0.073234 0.408819 -2.439678
v 2.097538 0.408819 -0.000000
v -3.521255 0.408819 -0.000000
v -1.481613 -0.000000 -3.271582
v 2.165437 -0.000000 -3.112353
v -1.363672 -0.000000 -6.691829
v 2.342879 -0.000000 -5.826705
v 1.593078 3.068683 -3.527697
v -0.865637 4.279372 -6.210562
v 1.812763 3.068683 -5.535864
v 2.092677 1.703412 -2.912558
v -1.612500 1.703412 -3.004709
v 2.329148 1.703412 -6.016932
v -1.537867 1.703412 -6.947299
v 1.327667 -0.000000 -7.012520
v 0.800794 -0.000000 -2.650147
v 0.282906 3.575782 -3.120011
v 0.800498 3.575782 -6.577855
v 0.858574 1.703412 -2.383275
v 1.376166 1.703412 -7.314591
v -1.996794 -0.000000 -4.440031
v 2.821032 -0.000000 -4.440031
v 2.216274 3.068683 -4.432915
v -1.619264 3.746737 -4.432915
v 2.826050 1.703412 -4.432915
v -2.254871 1.703412 -4.432915
v 0.282906 3.913609 -4.432915
v 2.342400 0.408819 -2.912558
v 2.578871 0.408819 -6.016932
v -1.539207 0.408819 -6.947299
v -1.613841 0.408819 -3.004709
v 0.858574 0.408819 -2.383275
v 1.376166 0.408819 -7.314591
v 3.075773 0.408819 -4.432915
v -2.256211 0.408819 -4.432915
v 1.348893 3.634013 -4.432915
v -1.050673 4.490074 -4.432915
v -1.075234 4.082270 -3.620505
v -0.212410 0.000000 7.787994
v -0.455962 0.000001 12.655055
v 4.497432 0.000000 8.221635
v 2.917613 0.000001 13.790791
v 0.046195 3.233673 8.952840
v 0.224058 3.653493 11.930861
v 3.642490 3.233673 9.440689
v 2.368759 3.653493 12.781897
v -0.697093 2.230790 12.515781
v -0.632956 2.230789 8.160359
v 3.166072 2.230790 13.816341
v 4.760401 2.230790 8.656931
v 4.328928 0.000001 11.599011
v -0.741738 0.000000 10.789960
v -0.101439 3.422592 10.702208
v 3.804764 3.422592 11.293591
v -1.099065 2.230790 10.803789
v 4.707482 2.230790 11.730255
v 2.295316 0.000000 7.064711
v 1.134472 0.000001 13.648178
v 1.277012 3.653493 12.786128
v 2.070964 3.233673 8.283407
v 1.124154 2.230790 13.653032
v 2.238704 2.230789 7.332109
v 1.591819 3.422592 11.000774
v -0.753882 0.535390 12.837851
v 3.109283 0.535390 14.138410
v 4.866830 0.535390 8.053343
v -0.526527 0.535390 7.556771
v -1.099065 0.535390 10.803789
v 4.707482 0.535390 11.730255
v 1.067364 0.535390 13.975101
v 2.345133 0.535390 6.728520
v -1.745883 0.000001 16.013182
v 0.588733 0.000001 16.031380
v -1.745643 0.000001 13.688179
v 0.901260 0.000001 13.890509
v 0.016374 1.694910 15.616035
v -1.777214 1.852227 14.169446
v -0.041268 1.694910 14.317235
v 0.515974 0.989104 16.231174
v -1.876769 0.989104 16.280054
v 0.887529 0.989104 13.700281
v -1.919838 0.989103 13.432710
v -0.306422 0.000001 13.310711
v -0.651995 0.000001 16.537792
v -1.169883 2.202009 16.067928
v -0.786169 2.223017 13.745376
v -0.594215 0.989104 16.804665
v -0.257923 0.989103 13.008640
v -2.038336 0.000001 14.762506
v 1.335104 0.000001 14.762506
v 0.730346 1.694910 14.769623
v -2.190413 1.319592 14.769623
v 1.340122 0.989104 14.769623
v -2.296413 0.989104 14.769623
v -1.062942 2.539836 14.769623
v 0.765697 0.408820 16.231174
v 1.137251 0.408820 13.700281
v -1.921178 0.408820 13.432710
v -1.878110 0.408820 16.280054
v -0.594215 0.408820 16.804665
v -0.257923 0.408820 13.008640
v 1.589845 0.408820 14.769623
v -2.297753 0.408820 14.769623
v -0.137035 2.260241 14.769623
v -1.574399 2.083937 14.769623
v -1.869110 1.655125 15.664259
v 10.350547 0.000000 9.648033
v 10.143560 0.000001 14.388925
v 14.796611 0.000000 9.801349
v 13.672014 0.000001 14.619587
v 10.683476 3.989058 13.644901
v 14.171000 5.562863 10.448757
v 13.293942 3.989058 13.930477
v 9.883842 2.214309 14.294343
v 10.003632 2.214309 9.477890
v 13.919295 2.214309 14.601737
v 15.128702 2.214309 9.574909
v 15.213484 0.000001 13.299888
v 9.542727 0.000001 12.614991
v 10.153515 4.648249 11.941776
v 14.648453 4.648249 12.614608
v 9.195813 2.214309 12.690102
v 15.606154 2.214309 13.362933
v 11.869442 0.000000 8.978338
v 11.869441 0.000001 15.241150
v 11.860191 3.989058 14.455010
v 11.860191 4.870479 9.469097
v 11.860191 2.214309 15.247673
v 11.860192 2.214309 8.642857
v 11.860191 5.087399 11.941776
v 9.883842 0.531435 14.618964
v 13.919295 0.531435 14.926358
v 15.128702 0.531434 9.573166
v 10.003632 0.531434 9.476148
v 9.195813 0.531435 12.690102
v 15.606154 0.531435 13.362933
v 11.860191 0.531435 15.572294
v 11.860192 0.531434 8.641115
v 11.860191 4.723945 13.327479
v 11.860191 5.836760 10.208224
v 10.804120 5.306645 10.176296
vt 0.607916 0.666533
vt 0.719061 0.728330
vt 0.578189 0.777272
vt 0.458438 0.599054
vt 0.685271 0.500786
vt 0.489410 0.610043
vt 0.846102 0.495110
vt 0.945272 0.624484
vt 0.833020 0.516369
vt 0.989812 0.776863
vt 0.843130 0.932306
vt 0.965762 0.773276
vt 0.583240 0.985228
vt 0.458461 0.818151
vt 0.596545 0.964518
vt 0.789020 0.580609
vt 0.694646 0.647824
vt 0.697043 0.575926
vt 0.807844 0.731508
vt 0.875683 0.658165
vt 0.896410 0.765560
vt 0.665944 0.837320
vt 0.808182 0.878504
vt 0.637988 0.909277
vt 0.557044 0.629157
vt 0.524919 0.796017
vt 0.753053 0.662264
vt 0.678760 0.476420
vt 0.859331 0.956925
vt 0.765251 0.832014
vt 0.964907 0.613312
vt 0.429427 0.827254
vt 0.803332 0.691510
vt 0.364360 0.273220
vt 0.459669 0.265004
vt 0.399124 0.326942
vt 0.546402 0.528179
vt 0.633059 0.267003
vt 0.657104 0.258449
vt 0.173090 0.607026
vt 0.362533 0.598841
vt 0.366112 0.617096
vt 0.018934 0.194291
vt 0.035222 0.462065
vt 0.016350 0.471995
vt 0.268727 0.012297
vt 0.533789 0.074927
vt 0.270280 0.039755
vt 0.336303 0.373969
vt 0.475442 0.444345
vt 0.355538 0.514404
vt 0.246147 0.349335
vt 0.218386 0.518575
vt 0.109679 0.421335
vt 0.274742 0.091108
vt 0.250178 0.262979
vt 0.117658 0.244702
vt 0.548613 0.254333
vt 0.397023 0.202479
vt 0.491299 0.126148
vt 0.276855 0.374380
vt 0.327595 0.327537
vt 0.528420 0.518785
vt 0.044605 0.203938
vt 0.283510 0.209549
vt 0.382980 0.239847
vt 0.181235 0.589755
vt 0.555888 0.045143
vt 0.607916 0.666533
vt 0.719061 0.728330
vt 0.578189 0.777272
vt 0.458438 0.599054
vt 0.685271 0.500786
vt 0.489410 0.610043
vt 0.846102 0.495110
vt 0.945272 0.624484
vt 0.833020 0.516369
vt 0.989812 0.776863
vt 0.843130 0.932306
vt 0.965762 0.773276
vt 0.583240 0.985228
vt 0.458461 0.818151
vt 0.596545 0.964518
vt 0.789020 0.580609
vt 0.694646 0.647824
vt 0.697043 0.575926
vt 0.807844 0.731508
vt 0.875683 0.658165
vt 0.896410 0.765560
vt 0.665944 0.837320
vt 0.808182 0.878504
vt 0.637988 0.909277
vt 0.557044 0.629157
vt 0.524919 0.796017
vt 0.753053 0.662264
vt 0.678760 0.476420
vt 0.859331 0.956925
vt 0.765251 0.832014
vt 0.964907 0.613312
vt 0.429427 0.827254
vt 0.803332 0.691510
vt 0.887986 0.132388
vt 0.808794 0.117371
vt 0.865376 0.086955
vt 0.996145 0.150534
vt 0.922260 0.058003
vt 0.928479 0.039703
vt 0.835731 0.360901
vt 0.943795 0.270098
vt 0.961242 0.283280
vt 0.726762 0.337323
vt 0.670529 0.218685
vt 0.740662 0.320012
vt 0.688771 0.073796
vt 0.799142 0.030691
vt 0.701953 0.086725
vt 0.880026 0.216286
vt 0.962296 0.158436
vt 0.931784 0.246675
vt 0.745893 0.294593
vt 0.824666 0.268792
vt 0.828917 0.317582
vt 0.715123 0.097013
vt 0.755020 0.175909
vt 0.686325 0.216156
vt 0.801582 0.052228
vt 0.912239 0.070637
vt 0.819118 0.209192
vt 0.977714 0.156425
vt 0.650448 0.220766
vt 0.784730 0.227605
vt 0.812802 0.152821
vt 0.832294 0.342395
vt 0.795224 0.008970
vt 0.803010 0.060444
vt 0.777227 0.113002
vt 0.364360 0.273220
vt 0.459669 0.265004
vt 0.399124 0.326942
vt 0.546402 0.528179
vt 0.633059 0.267003
vt 0.657104 0.258449
vt 0.173090 0.607026
vt 0.362533 0.598841
vt 0.366112 0.617096
vt 0.018934 0.194291
vt 0.035222 0.462065
vt 0.016350 0.471995
vt 0.268727 0.012297
vt 0.533789 0.074927
vt 0.270280 0.039755
vt 0.336303 0.373969
vt 0.475442 0.444345
vt 0.355538 0.514404
vt 0.246147 0.349335
vt 0.218386 0.518575
vt 0.109679 0.421335
vt 0.274742 0.091108
vt 0.250178 0.262979
vt 0.117658 0.244702
vt 0.548613 0.254333
vt 0.397023 0.202479
vt 0.491299 0.126148
vt 0.276855 0.374380
vt 0.327595 0.327537
vt 0.528420 0.518785
vt 0.044605 0.203938
vt 0.283510 0.209549
vt 0.382980 0.239847
vt 0.181235 0.589755
vt 0.555888 0.045143
vn -0.2486 0.8611 0.4435
vn -0.1174 0.9931 -0.0044
vn -0.4996 0.8663 0.0013
vn -0.4476 -0.5858 0.6756
vn 0.1710 -0.2721 0.9469
vn -0.5575 -0.1818 0.8100
vn 0.5819 -0.5497 0.5993
vn 0.9755 -0.1729 0.1360
vn 0.6903 -0.2013 0.6949
vn 0.6553 -0.5975 -0.4620
vn 0.1372 -0.2880 -0.9478
vn 0.8004 -0.2126 -0.5604
vn -0.5286 -0.6026 -0.5978
vn -0.9927 -0.0995 0.0676
vn -0.6612 -0.1743 -0.7297
vn 0.6385 0.3604 0.6800
vn 0.0179 0.8826 0.4698
vn 0.1924 0.3285 0.9247
vn 0.3824 0.8904 -0.2468
vn 0.9197 0.3686 0.1355
vn 0.7359 0.3864 -0.5560
vn -0.2926 0.8948 -0.3371
vn 0.1320 0.3359 -0.9326
vn -0.5208 0.4863 -0.7016
vn -0.4299 0.4186 0.7999
vn -0.8534 0.5186 0.0517
vn 0.2780 0.8864 0.3701
vn 0.1327 -0.5549 0.8213
vn 0.1068 -0.5990 -0.7936
vn -0.0214 0.8610 -0.5082
vn 0.8403 -0.5259 0.1313
vn -0.8419 -0.5354 0.0677
vn 0.5104 0.8541 0.0996
vn 0.3077 0.9457 0.1045
vn -0.3487 0.6993 0.6241
vn 0.1374 0.6763 0.7237
vn 0.0157 -0.5523 0.8335
vn -0.6093 -0.2797 0.7420
vn -0.5638 -0.5730 0.5948
vn 0.8457 -0.5308 0.0545
vn 0.6664 -0.2036 0.7172
vn 0.5546 -0.5501 0.6243
vn 0.3129 -0.5960 -0.7395
vn 0.8491 -0.2147 -0.4826
vn 0.7152 -0.5833 -0.3851
vn -0.5394 -0.6025 -0.5883
vn -0.9627 -0.2620 0.0676
vn -0.6187 -0.2881 -0.7309
vn 0.5324 0.6240 0.5720
vn 0.1054 0.2046 0.9732
vn 0.6317 0.2852 0.7208
vn 0.7253 0.6072 -0.3244
vn 0.9526 0.2971 0.0649
vn 0.8404 0.2890 -0.4584
vn -0.6378 0.1737 -0.7503
vn 0.3461 0.6872 -0.6388
vn 0.4002 0.2137 -0.8911
vn -0.6324 0.1535 0.7593
vn -0.9020 0.4252 0.0747
vn -0.9869 0.1458 0.0696
vn 0.7763 0.6259 0.0747
vn 0.4321 0.8968 0.0948
vn 0.0588 -0.2642 0.9627
vn 0.3372 -0.2724 -0.9012
vn -0.2971 0.7978 -0.5247
vn -0.2440 0.9597 0.1392
vn 0.9830 -0.1723 0.0637
vn -0.8421 -0.5355 0.0646
vn -0.3936 0.8611 -0.3219
vn 0.0247 0.9931 -0.1148
vn 0.0854 0.8663 -0.4922
vn -0.5876 -0.5858 -0.5581
vn -0.9622 -0.2721 0.0039
vn -0.7009 -0.1818 -0.6897
vn -0.6913 -0.5497 0.4690
vn -0.3033 -0.1729 0.9371
vn -0.8043 -0.2013 0.5592
vn 0.3412 -0.5975 0.7256
vn 0.9095 -0.2880 0.2997
vn 0.4129 -0.2126 0.8856
vn 0.6806 -0.6026 -0.4168
vn 0.1058 -0.0995 -0.9894
vn 0.8334 -0.1743 -0.5245
vn -0.7805 0.3604 0.5107
vn -0.4658 0.8826 -0.0639
vn -0.9441 0.3285 0.0289
vn 0.1766 0.8904 0.4195
vn -0.2931 0.3686 0.8822
vn 0.4197 0.3864 0.8213
vn 0.3828 0.8948 -0.2296
vn 0.8955 0.3359 0.2920
vn 0.7814 0.4863 -0.3911
vn -0.7131 0.4186 -0.5623
vn 0.0973 0.5186 -0.8495
vn -0.4127 0.8864 0.2095
vn -0.8318 -0.5549 -0.0120
vn 0.7630 -0.5990 0.2430
vn 0.5041 0.8610 0.0672
vn -0.2752 -0.5259 0.8048
vn 0.0795 -0.5354 -0.8408
vn -0.1867 0.8541 0.4854
vn -0.1571 0.7984 0.5812
vn -0.6713 0.7401 -0.0401
vn -0.8060 0.5222 0.2787
vn -0.0347 -0.5561 0.8304
vn -0.7122 -0.2662 0.6496
vn -0.6835 -0.5489 0.4812
vn 0.8362 -0.5465 0.0470
vn 0.6804 -0.1280 0.7215
vn 0.5493 -0.5491 0.6299
vn 0.5581 -0.5951 -0.5783
vn 0.1184 -0.2831 -0.9518
vn 0.7384 -0.1378 -0.6601
vn -0.5887 -0.5965 -0.5456
vn -0.9656 -0.2598 -0.0056
vn -0.6624 -0.2880 -0.6916
vn 0.4739 0.7320 0.4895
vn 0.0933 0.2989 0.9497
vn 0.5582 0.4787 0.6776
vn 0.5876 0.5218 -0.6184
vn 0.6043 0.7957 -0.0419
vn 0.8578 0.5116 0.0498
vn -0.6705 0.2393 -0.7023
vn 0.0826 0.7915 -0.6055
vn 0.1967 0.3326 -0.9223
vn -0.9891 0.1472 -0.0064
vn -0.7261 0.1898 0.6609
vn 0.5144 0.8559 -0.0541
vn 0.0288 -0.2560 0.9662
vn 0.0709 -0.5995 -0.7972
vn 0.5163 0.6699 -0.5335
vn -0.2199 0.9740 -0.0540
vn 0.9964 -0.0674 0.0519
vn -0.8444 -0.5355 -0.0190
vn -0.9067 0.4213 -0.0194
vn -0.6767 0.6692 -0.3069
vn -0.1045 0.9457 0.3077
vn -0.6241 0.6993 -0.3487
vn -0.7237 0.6763 0.1374
vn -0.8335 -0.5523 0.0157
vn -0.7420 -0.2797 -0.6093
vn -0.5948 -0.5730 -0.5638
vn -0.0545 -0.5308 0.8457
vn -0.7172 -0.2036 0.6664
vn -0.6243 -0.5501 0.5546
vn 0.7395 -0.5960 0.3129
vn 0.4826 -0.2147 0.8491
vn 0.3851 -0.5833 0.7152
vn 0.5883 -0.6025 -0.5394
vn -0.0676 -0.2620 -0.9627
vn 0.7309 -0.2881 -0.6187
vn -0.5720 0.6240 0.5324
vn -0.9732 0.2046 0.1054
vn -0.7208 0.2852 0.6317
vn 0.3244 0.6072 0.7253
vn -0.0649 0.2971 0.9526
vn 0.4584 0.2890 0.8404
vn 0.7503 0.1737 -0.6378
vn 0.6388 0.6872 0.3461
vn 0.8911 0.2137 0.4002
vn -0.7593 0.1535 -0.6324
vn -0.0747 0.4252 -0.9020
vn -0.0696 0.1458 -0.9869
vn -0.0747 0.6259 0.7763
vn -0.0948 0.8968 0.4321
vn -0.9627 -0.2642 0.0588
vn 0.9012 -0.2724 0.3372
vn 0.5247 0.7978 -0.2971
vn -0.1392 0.9597 -0.2440
vn -0.0637 -0.1723 0.9830
vn -0.0646 -0.5355 -0.8421
s 1
f 5/1/1 25/2/2 22/3/3
f 1/4/4 30/5/5 29/6/6
f 2/7/7 32/8/8 26/9/9
f 4/10/10 31/11/11 27/12/12
f 3/13/13 33/14/14 28/15/15
f 9/16/16 15/17/17 17/18/18
f 8/19/19 23/20/20 11/21/21
f 7/22/22 18/23/23 12/24/24
f 10/25/25 22/3/3 24/26/26
f 6/27/27 25/2/2 15/17/17
f 2/7/7 30/5/5 14/28/28
f 3/13/13 31/11/11 13/29/29
f 5/1/1 17/18/18 15/17/17
f 16/30/30 11/21/21 18/23/23
f 25/2/2 7/22/22 22/3/3
f 4/10/10 32/8/8 20/31/31
f 1/4/4 33/14/14 19/32/32
f 6/27/27 23/20/20 21/33/33
f 7/22/22 24/26/26 22/3/3
f 8/19/19 25/2/2 21/33/33
f 30/5/5 10/25/25 29/6/6
f 23/20/20 26/9/9 32/8/8
f 31/11/11 11/21/21 27/12/12
f 24/26/26 28/15/15 33/14/14
f 9/16/16 30/5/5 26/9/9
f 12/24/24 31/11/11 28/15/15
f 27/12/12 23/20/20 32/8/8
f 29/6/6 24/26/26 33/14/14
f 57/34/34 68/35/35 47/36/36
f 46/37/37 61/38/38 34/39/39
f 52/40/40 58/41/41 35/42/42
f 45/43/43 59/44/44 37/45/45
f 36/46/46 65/47/47 60/48/48
f 38/49/49 49/50/50 41/51/51
f 40/52/52 55/53/53 43/54/54
f 44/55/55 48/56/56 50/57/57
f 42/58/58 54/59/59 56/60/60
f 38/49/49 53/61/61 66/62/62
f 35/42/42 62/63/63 46/37/37
f 36/46/46 63/64/64 45/43/43
f 47/36/36 42/58/58 49/50/50
f 40/52/52 50/57/57 48/56/56
f 57/34/34 39/65/65 67/66/66
f 37/45/45 64/67/67 52/40/40
f 34/39/39 65/47/47 51/68/68
f 53/61/61 41/51/51 55/53/53
f 54/59/59 44/55/55 56/60/60
f 53/61/61 40/52/52 66/62/62
f 62/63/63 42/58/58 61/38/38
f 55/53/53 58/41/41 64/67/67
f 63/64/64 43/54/54 59/44/44
f 56/60/60 60/48/48 65/47/47
f 41/51/51 62/63/63 58/41/41
f 44/55/55 63/64/64 60/48/48
f 59/44/44 55/53/53 64/67/67
f 61/38/38 56/60/60 65/47/47
f 48/56/56 66/62/62 40/52/52
f 66/62/62 47/36/36 38/49/49
f 39/65/65 54/59/59 67/66/66
f 67/66/66 54/59/59 68/35/35
f 73/69/69 93/70/70 90/71/71
f 69/72/72 98/73/73 97/74/74
f 70/75/75 100/76/76 94/77/77
f 72/78/78 99/79/79 95/80/80
f 71/81/81 101/82/82 96/83/83
f 77/84/84 83/85/85 85/86/86
f 76/87/87 91/88/88 79/89/89
f 75/90/90 86/91/91 80/92/92
f 78/93/93 90/71/71 92/94/94
f 74/95/95 93/70/70 83/85/85
f 70/75/75 98/73/73 82/96/96
f 71/81/81 99/79/79 81/97/97
f 73/69/69 85/86/86 83/85/85
f 84/98/98 79/89/89 86/91/91
f 93/70/70 75/90/90 90/71/71
f 72/78/78 100/76/76 88/99/99
f 69/72/72 101/82/82 87/100/100
f 74/95/95 91/88/88 89/101/101
f 75/90/90 92/94/94 90/71/71
f 76/87/87 93/70/70 89/101/101
f 98/73/73 78/93/93 97/74/74
f 91/88/88 94/77/77 100/76/76
f 99/79/79 79/89/89 95/80/80
f 92/94/94 96/83/83 101/82/82
f 77/84/84 98/73/73 94/77/77
f 80/92/92 99/79/79 96/83/83
f 95/80/80 91/88/88 100/76/76
f 97/74/74 92/94/94 101/82/82
f 115/102/102 135/103/103 136/104/104
f 114/105/105 129/106/106 102/107/107
f 120/108/108 126/109/109 103/110/110
f 105/111/111 131/112/112 127/113/113
f 104/114/114 133/115/115 128/116/116
f 106/117/117 117/118/118 109/119/119
f 111/120/120 121/121/121 123/122/122
f 112/123/123 116/124/124 118/125/125
f 136/104/104 124/126/126 110/127/127
f 106/117/117 121/121/121 134/128/128
f 103/110/110 130/129/129 114/105/105
f 113/130/130 128/116/116 131/112/112
f 115/102/102 110/127/127 117/118/118
f 108/131/131 118/125/125 116/124/124
f 125/132/132 116/124/124 135/103/103
f 120/108/108 127/113/113 132/133/133
f 102/107/107 133/115/115 119/134/134
f 121/121/121 109/119/119 123/122/122
f 122/135/135 112/123/123 124/126/126
f 121/121/121 108/131/131 134/128/128
f 130/129/129 110/127/127 129/106/106
f 123/122/122 126/109/109 132/133/133
f 131/112/112 111/120/120 127/113/113
f 124/126/126 128/116/116 133/115/115
f 109/119/119 130/129/129 126/109/109
f 112/123/123 131/112/112 128/116/116
f 127/113/113 123/122/122 132/133/133
f 129/106/106 124/126/126 133/115/115
f 108/131/131 116/124/124 134/128/128
f 134/128/128 115/102/102 106/117/117
f 107/136/136 122/135/135 135/103/103
f 135/103/103 122/135/135 136/104/104
f 116/124/124 125/132/132 134/128/128
f 134/128/128 125/132/132 115/102/102
f 115/102/102 125/132/132 135/103/103
f 116/124/124 107/136/136 135/103/103
f 160/137/137 171/138/138 150/139/139
f 149/140/140 164/141/141 137/142/142
f 155/143/143 161/144/144 138/145/145
f 148/146/146 162/147/147 140/148/148
f 139/149/149 168/150/150 163/151/151
f 141/152/152 152/153/153 144/154/154
f 143/155/155 158/156/156 146/157/157
f 147/158/158 151/159/159 153/160/160
f 145/161/161 157/162/162 159/163/163
f 141/152/152 156/164/164 169/165/165
f 138/145/145 165/166/166 149/140/140
f 139/149/149 166/167/167 148/146/146
f 150/139/139 145/161/161 152/153/153
f 143/155/155 153/160/160 151/159/159
f 160/137/137 142/168/168 170/169/169
f 140/148/148 167/170/170 155/143/143
f 137/142/142 168/150/150 154/171/171
f 156/164/164 144/154/154 158/156/156
f 157/162/162 147/158/158 159/163/163
f 156/164/164 143/155/155 169/165/165
f 165/166/166 145/161/161 164/141/141
f 158/156/156 161/144/144 167/170/170
f 166/167/167 146/157/157 162/147/147
f 159/163/163 163/151/151 168/150/150
f 144/154/154 165/166/166 161/144/144
f 147/158/158 166/167/167 163/151/151
f 162/147/147 158/156/156 167/170/170
f 164/141/141 159/163/163 168/150/150
f 151/159/159 169/165/165 143/155/155
f 169/165/165 150/139/139 141/152/152
f 142/168/168 157/162/162 170/169/169
f 170/169/169 157/162/162 171/138/138
f 5/1/1 15/17/17 25/2/2
f 1/4/4 14/28/28 30/5/5
f 2/7/7 20/31/31 32/8/8
f 4/10/10 13/29/29 31/11/11
f 3/13/13 19/32/32 33/14/14
f 9/16/16 6/27/27 15/17/17
f 8/19/19 21/33/33 23/20/20
f 7/22/22 16/30/30 18/23/23
f 10/25/25 5/1/1 22/3/3
f 6/27/27 21/33/33 25/2/2
f 2/7/7 26/9/9 30/5/5
f 3/13/13 28/15/15 31/11/11
f 5/1/1 10/25/25 17/18/18
f 16/30/30 8/19/19 11/21/21
f 25/2/2 16/30/30 7/22/22
f 4/10/10 27/12/12 32/8/8
f 1/4/4 29/6/6 33/14/14
f 6/27/27 9/16/16 23/20/20
f 7/22/22 12/24/24 24/26/26
f 8/19/19 16/30/30 25/2/2
f 30/5/5 17/18/18 10/25/25
f 23/20/20 9/16/16 26/9/9
f 31/11/11 18/23/23 11/21/21
f 24/26/26 12/24/24 28/15/15
f 9/16/16 17/18/18 30/5/5
f 12/24/24 18/23/23 31/11/11
f 27/12/12 11/21/21 23/20/20
f 29/6/6 10/25/25 24/26/26
f 57/34/34 67/66/66 68/35/35
f 46/37/37 62/63/63 61/38/38
f 52/40/40 64/67/67 58/41/41
f 45/43/43 63/64/64 59/44/44
f 36/46/46 51/68/68 65/47/47
f 38/49/49 47/36/36 49/50/50
f 40/52/52 53/61/61 55/53/53
f 44/55/55 39/65/65 48/56/56
f 42/58/58 68/35/35 54/59/59
f 35/42/42 58/41/41 62/63/63
f 36/46/46 60/48/48 63/64/64
f 47/36/36 68/35/35 42/58/58
f 40/52/52 43/54/54 50/57/57
f 57/34/34 48/56/56 39/65/65
f 37/45/45 59/44/44 64/67/67
f 34/39/39 61/38/38 65/47/47
f 53/61/61 38/49/49 41/51/51
f 54/59/59 39/65/65 44/55/55
f 62/63/63 49/50/50 42/58/58
f 55/53/53 41/51/51 58/41/41
f 63/64/64 50/57/57 43/54/54
f 56/60/60 44/55/55 60/48/48
f 41/51/51 49/50/50 62/63/63
f 44/55/55 50/57/57 63/64/64
f 59/44/44 43/54/54 55/53/53
f 61/38/38 42/58/58 56/60/60
f 48/56/56 57/34/34 66/62/62
f 66/62/62 57/34/34 47/36/36
f 73/69/69 83/85/85 93/70/70
f 69/72/72 82/96/96 98/73/73
f 70/75/75 88/99/99 100/76/76
f 72/78/78 81/97/97 99/79/79
f 71/81/81 87/100/100 101/82/82
f 77/84/84 74/95/95 83/85/85
f 76/87/87 89/101/101 91/88/88
f 75/90/90 84/98/98 86/91/91
f 78/93/93 73/69/69 90/71/71
f 74/95/95 89/101/101 93/70/70
f 70/75/75 94/77/77 98/73/73
f 71/81/81 96/83/83 99/79/79
f 73/69/69 78/93/93 85/86/86
f 84/98/98 76/87/87 79/89/89
f 93/70/70 84/98/98 75/90/90
f 72/78/78 95/80/80 100/76/76
f 69/72/72 97/74/74 101/82/82
f 74/95/95 77/84/84 91/88/88
f 75/90/90 80/92/92 92/94/94
f 76/87/87 84/98/98 93/70/70
f 98/73/73 85/86/86 78/93/93
f 91/88/88 77/84/84 94/77/77
f 99/79/79 86/91/91 79/89/89
f 92/94/94 80/92/92 96/83/83
f 77/84/84 85/86/86 98/73/73
f 80/92/92 86/91/91 99/79/79
f 95/80/80 79/89/89 91/88/88
f 97/74/74 78/93/93 92/94/94
f 114/105/105 130/129/129 129/106/106
f 120/108/108 132/133/133 126/109/109
f 105/111/111 113/130/130 131/112/112
f 104/114/114 119/134/134 133/115/115
f 106/117/117 115/102/102 117/118/118
f 111/120/120 108/131/131 121/121/121
f 112/123/123 107/136/136 116/124/124
f 136/104/104 122/135/135 124/126/126
f 103/110/110 126/109/109 130/129/129
f 113/130/130 104/114/114 128/116/116
f 115/102/102 136/104/104 110/127/127
f 108/131/131 111/120/120 118/125/125
f 120/108/108 105/111/111 127/113/113
f 102/107/107 129/106/106 133/115/115
f 121/121/121 106/117/117 109/119/119
f 122/135/135 107/136/136 112/123/123
f 130/129/129 117/118/118 110/127/127
f 123/122/122 109/119/119 126/109/109
f 131/112/112 118/125/125 111/120/120
f 124/126/126 112/123/123 128/116/116
f 109/119/119 117/118/118 130/129/129
f 112/123/123 118/125/125 131/112/112
f 127/113/113 111/120/120 123/122/122
f 129/106/106 110/127/127 124/126/126
f 160/137/137 170/169/169 171/138/138
f 149/140/140 165/166/166 164/141/141
f 155/143/143 167/170/170 161/144/144
f 148/146/146 166/167/167 162/147/147
f 139/149/149 154/171/171 168/150/150
f 141/152/152 150/139/139 152/153/153
f 143/155/155 156/164/164 158/156/156
f 147/158/158 142/168/168 151/159/159
f 145/161/161 171/138/138 157/162/162
f 138/145/145 161/144/144 165/166/166
f 139/149/149 163/151/151 166/167/167
f 150/139/139 171/138/138 145/161/161
f 143/155/155 146/157/157 153/160/160
f 160/137/137 151/159/159 142/168/168
f 140/148/148 162/147/147 167/170/170
f 137/142/142 164/141/141 168/150/150
f 156/164/164 141/152/152 144/154/154
f 157/162/162 142/168/168 147/158/158
f 165/166/166 152/153/153 145/161/161
f 158/156/156 144/154/154 161/144/144
f 166/167/167 153/160/160 146/157/157
f 159/163/163 147/158/158 163/151/151
f 144/154/154 152/153/153 165/166/166
f 147/158/158 153/160/160 166/167/167
f 162/147/147 146/157/157 158/156/156
f 164/141/141 145/161/161 159/163/163
f 151/159/159 160/137/137 169/165/165
f 169/165/165 160/137/137 150/139/139
